<?xml version="1.0" encoding="utf-8"?>
<!-- Generator: Adobe Illustrator 18.0.0, SVG Export Plug-In . SVG Version: 6.00 Build 0)  -->
<!DOCTYPE svg PUBLIC "-//W3C//DTD SVG 1.1//EN" "http://www.w3.org/Graphics/SVG/1.1/DTD/svg11.dtd">
<svg version="1.1" id="Layer_1" xmlns="http://www.w3.org/2000/svg" xmlns:xlink="http://www.w3.org/1999/xlink" x="0px" y="0px"
	 viewBox="11 90.5 60 55" enable-background="new 11 90.5 60 55" xml:space="preserve">
<path fill="#FFDB45" d="M66,145.5H16c-2.8,0-5-2.2-5-5v-45c0-2.8,2.2-5,5-5h50c2.8,0,5,2.2,5,5v45C71,143.3,68.7,145.5,66,145.5z"/>
<g>
	<path fill="#111111" d="M28.3,133.7h25.1v2.1H28.3V133.7z"/>
	<path fill="#111111" d="M47.1,102.3v17.6c0,3.1-2.3,5.4-5.4,5.4H40c-3.1,0-5.4-2.3-5.4-5.4v-17.6h-6.3v17.6
		c0,6.5,5.2,11.7,11.7,11.7h1.9c6.5,0,11.7-5.2,11.7-11.7v-17.6C53.6,102.3,47.1,102.3,47.1,102.3z"/>
</g>
</svg>
